<svg width="50" height="34" viewBox="0 0 50 34" fill="none" xmlns="http://www.w3.org/2000/svg">
<path d="M4 17.2V26H7.6C6.8 26.4 6 27 5.2 27.6C2.6 24.8 1 21.2 1 17H4V17.2ZM5.2 6.2C5.8 6.8 6.6 7.2 7.2 7.6H4V13V16.6H1C1.2 12.6 2.6 9 5.2 6.2ZM16.8 1C14.6 2.8 12.8 5.2 11.6 7.8H8.4C7.4 7.2 6.4 6.6 5.6 6C8.4 2.8 12.4 1 16.8 1ZM16.8 9.8C16.6 9.8 16.4 9.8 16.2 9.8V7.6H12.4C13.6 5.4 15 3.4 17 1.6L16.8 9.8ZM16.8 16.6H15.6V15H10.6V13V12.6H16.2V10.4C16.4 10.4 16.6 10.4 16.8 10.4V16.6ZM16.8 23.6C15 23.6 13.2 24 11.4 24.4C11 23.4 10.8 22.4 10.4 21.6V19.8H15.6V17.2H16.8V23.6ZM16.8 32.2C14.6 30.2 12.8 27.6 11.6 24.8C13.2 24.2 15 24 16.8 24V32.2ZM10.4 24.6V23.4C10.6 23.8 10.6 24.2 10.8 24.4L10.4 24.6ZM5.6 28.2C6.6 27.4 7.6 26.6 8.6 26.2H10.4V25.4C10.6 25.4 10.8 25.2 11 25.2C12.2 28.2 14.2 30.8 16.6 33.2C12.4 32.8 8.4 31 5.6 28.2ZM22.6 26H25.4C26.6 26.6 27.6 27.2 28.6 28C25.6 31 21.8 33 17.4 33C19.6 31 21.4 28.6 22.6 26ZM17.4 24C18.2 24 18.8 24 19.6 24.2V26H22C20.8 28.2 19.2 30.4 17.4 32.2V24ZM17.4 17.2H19.6V23V23.8C18.8 23.6 18.2 23.6 17.4 23.6V17.2ZM17.4 10.4C18 10.4 18.6 10.4 19.4 10.2C19.4 12 20.8 13.4 22.6 13.4C23 13.4 23.6 13.2 24 13C24 13.4 24.2 13.6 24.2 14H19.6V16.4H17.4V10.4ZM17.4 1.8C19.2 3.4 20.6 5.2 21.8 7.4C20.6 7.8 19.8 8.6 19.4 9.8C18.8 9.8 18 10 17.4 10V1.8ZM28.6 5.8C27.4 6.8 26.2 7.6 24.8 8.2C24.2 7.6 23.4 7.2 22.4 7.2H22.2C21 4.8 19.4 2.8 17.4 1C21.8 1 25.6 2.8 28.6 5.8ZM25.4 23V17.2H29.6L26.8 26H30.2C29.8 26.6 29.4 27.2 28.8 27.6C27.6 26.6 26.6 26 25.2 25.2V23H25.4ZM40.2 7.8H32.6L32.2 9C31.6 7.8 30.8 6.8 30 5.8C31 5.4 32.2 5.4 33.4 5.4C36.6 5.4 39.4 6.6 41.6 8.8C43.6 11 44.8 13.8 44.8 17C44.8 18.6 44.4 20.2 43.8 21.4L40.2 7.8ZM35 19.8L36.2 15L37.4 19.8H35ZM34 23.8H38.2L38.8 26H40.6C38.6 27.6 36.2 28.4 33.4 28.4C32.2 28.4 31.2 28.2 30 28C30.6 27.4 31.2 26.6 31.6 26H33.6L34 23.8ZM25.2 8.6C26.6 8 27.8 7.2 29 6.2C30.2 7.4 31.2 9 31.8 10.6L29.8 16.8H25.4V14.2H24.6C24.6 13.8 24.4 13.4 24.4 12.8C25.2 12.4 25.6 11.4 25.6 10.4C25.6 9.6 25.4 9 25.2 8.6ZM28.2 1.8L28.6 3L30.4 2.6L30.2 1.4C30.8 1 31.6 1 32.2 1L32.4 2.4H34.4V1C35 1 35.8 1.2 36.4 1.2L36.2 2.4L38 3L38.4 1.8C39 2 39.6 2.2 40.2 2.6L39.6 3.8L41.2 4.8L42 3.8C42.6 4.2 43 4.6 43.6 5L42.8 6L44.2 7.4L45.2 6.6C45.6 7 46 7.6 46.4 8.2L45.4 9L46.4 10.6L47.6 10C47.8 10.6 48.2 11.2 48.4 11.8L47.2 12.2L47.6 14.2L48.8 14C49 14.6 49 15.2 49 16L47.8 16.2V18.2L49 18.4C49 19 48.8 19.6 48.8 20.2L47.6 19.8L47.2 21.6L48.4 22C48.2 22.6 48 23.2 47.6 23.8L46.4 23.4L45.4 25L46.4 25.8C46 26.4 45.6 26.8 45.2 27.4L44.2 26.6L42.8 28L43.6 29C43.2 29.4 42.6 29.8 42 30.2L41.2 29.2L39.6 30.2L40.2 31.4C39.6 31.6 39 32 38.4 32.2L38 31L36.2 31.6L36.4 32.8C35.8 33 35.2 33 34.4 33L34.2 31.8H32.2V33C31.6 33 30.8 32.8 30.2 32.8L30.4 31.4L28.6 31L28.2 32.2C27.6 32 26.8 31.8 26.2 31.4C27.4 30.6 28.6 29.6 29.6 28.6C30.8 29 32 29.2 33.4 29.2C36.4 29.2 39.2 28 41.4 26.2H45.4L44.4 22.4C45.2 20.8 45.6 19 45.6 17C45.6 13.8 44.4 10.6 42 8.4C39.8 6.2 36.6 4.8 33.4 4.8C32.2 4.8 30.8 5 29.6 5.4C28.6 4.4 27.4 3.4 26.2 2.6C26.8 2.2 27.4 2 28.2 1.8ZM17 34C20 34 22.6 33.2 25 32C27.4 33.2 30 34 33 34C42.4 34 50 26.4 50 17C50 7.6 42.4 0 33 0C30.2 0 27.4 0.8 25 2C22.6 0.8 19.8 0 17 0C7.6 0 0 7.6 0 17C0 26.4 7.6 34 17 34Z" fill="#1B1D28"/>
</svg>
