<svg width="20" height="15" viewBox="0 0 20 15" fill="none" xmlns="http://www.w3.org/2000/svg">
<path fill-rule="evenodd" clip-rule="evenodd" d="M3.34424 3V1C3.34424 0.447715 3.79195 0 4.34424 0H18.3442C18.8965 0 19.3442 0.447715 19.3442 1V11C19.3442 11.5523 18.8965 12 18.3442 12H16.3442V14C16.3442 14.5523 15.8965 15 15.3442 15H1.34424C0.791954 15 0.344238 14.5523 0.344238 14V4C0.344238 3.44772 0.791954 3 1.34424 3H3.34424ZM15.3442 12H4.34424C3.79195 12 3.34424 11.5523 3.34424 11V4H1.34424V14H15.3442V12ZM4.34424 1V11H18.3442V1H4.34424ZM18.3442 11H4.34424V10L7.34424 7L10.3442 9L14.3442 5L18.3442 10V11ZM9.84424 6C9.01581 6 8.34424 5.32843 8.34424 4.5C8.34424 3.67157 9.01581 3 9.84424 3C10.6727 3 11.3442 3.67157 11.3442 4.5C11.3442 5.32843 10.6727 6 9.84424 6Z" fill="white"/>
</svg>
