<svg width="15" height="13" viewBox="0 0 15 13" fill="none" xmlns="http://www.w3.org/2000/svg">
<path fill-rule="evenodd" clip-rule="evenodd" d="M13.3042 1.96027C12.6 1.21184 11.6639 0.799988 10.6679 0.799988C9.67186 0.799988 8.83598 1.21184 8.13153 1.96027L7.68414 2.63915L7.23679 1.96027C6.53255 1.21184 5.69641 0.799988 4.70055 0.799988C3.70472 0.799988 2.76818 1.21184 2.06402 1.96027C0.610172 3.50548 0.610172 6.01962 2.06402 7.56423L7.27354 12.3207C7.35872 12.4115 7.46476 12.4672 7.57555 12.4886C7.6127 12.4964 7.65006 12.5 7.6875 12.5C7.83487 12.5 7.98249 12.4403 8.09473 12.3207L13.3043 7.56423C14.7582 6.01962 14.7582 3.50548 13.3042 1.96027Z" fill="#BCBFC2"/>
</svg>
