<svg width="62" height="60" viewBox="0 0 62 60" fill="none" xmlns="http://www.w3.org/2000/svg">
<path fill-rule="evenodd" clip-rule="evenodd" d="M42.7974 0.0572507C42.6376 0.114995 42.6001 0.159116 42.586 0.306055C42.565 0.524866 42.6498 0.698378 43.1283 1.41687C45.1344 4.42842 47.2628 8.44321 48.2105 11.0035C50.0525 15.9797 50.8789 19.109 51.2457 22.4963C51.3422 23.3877 51.3431 26.4984 51.2471 27.2896C50.8934 30.2035 50.1294 32.5079 48.653 35.1145C48.1811 35.9476 47.2561 37.3297 46.7048 38.0255C46.0959 38.7938 44.6629 40.2487 43.9632 40.809C42.3837 42.0738 40.6115 43.0044 39.073 43.377C38.4142 43.5365 37.9043 43.9362 37.8267 44.3538C37.7689 44.6652 37.8086 44.7549 37.9973 44.7393C38.2165 44.7211 43.663 44.0013 43.8924 43.9602L44.0713 43.9281L43.3256 43.2754C42.8324 42.8437 42.612 42.6176 42.6748 42.6079C42.7852 42.5908 51.0608 43.9134 51.1017 43.9547C51.1168 43.97 51.0625 44.1506 50.981 44.3561C50.8996 44.5616 50.8444 44.7413 50.8584 44.7554C50.8724 44.7696 51.6603 44.8913 52.6094 45.0261C54.4827 45.2918 54.6427 45.34 54.8232 45.6926C54.941 45.9225 54.9018 46.3618 54.732 46.716C54.429 47.3481 52.82 49.2566 52.7322 49.088C52.7001 49.0263 52.5114 47.7208 52.5118 47.5635C52.512 47.5369 52.4627 47.528 52.4025 47.5439C52.3422 47.5598 50.5316 48.3003 48.3788 49.1894L44.4647 50.806L44.6719 50.9366C45.0959 51.2037 46.8983 52.0685 47.4882 52.2879C48.4638 52.6507 48.7431 52.7098 49.4589 52.7047C50.2002 52.6996 50.7326 52.5563 51.3463 52.1971C51.7523 51.9594 52.8937 50.8432 53.7131 49.8827C58.0078 44.8477 60.9204 38.802 61.6942 33.3163C62.0708 30.6463 62.1006 27.6386 61.7779 24.8819C61.3795 21.4799 60.5042 18.1537 59.1758 14.9941C58.9844 14.5389 58.7914 14.1296 58.7469 14.0846C58.7023 14.0396 58.5698 14.0028 58.4524 14.0028H58.2388L58.2699 13.3663C58.2967 12.8166 58.2846 12.6753 58.1813 12.3317C58.1054 12.0796 58.0161 11.9012 57.9375 11.845C57.8202 11.7611 57.8058 11.7649 57.6746 11.9137C57.5983 12.0003 57.3413 12.4116 57.1035 12.8278C56.8657 13.2439 56.5423 13.7605 56.3849 13.9758C56.0006 14.5012 55.3121 15.1864 54.8949 15.4588C54.5709 15.6702 53.9656 15.9381 53.9187 15.8907C53.9066 15.8785 54.0513 15.6064 54.2403 15.286C55.1352 13.7691 55.6619 12.122 55.7174 10.6671C55.7592 9.57107 55.5644 8.93622 54.9921 8.303C54.3924 7.63955 53.9974 7.49592 53.7126 7.83774C53.5285 8.05868 53.4845 8.22569 53.2918 9.43377C53.0843 10.7355 53.0544 10.8616 52.8187 11.4272C52.5722 12.0184 51.8847 13.3451 51.8122 13.3695C51.7824 13.3795 51.7137 13.3549 51.6593 13.3147C51.565 13.2451 51.5654 13.2295 51.6693 12.9633C52.0815 11.9073 52.4571 9.09829 52.3847 7.61326C52.3646 7.20059 52.303 6.77037 52.2144 6.42289C51.8363 4.94083 50.8704 3.62034 49.9638 3.34603C49.7345 3.27662 49.7165 3.2796 49.6181 3.4022C49.5289 3.51354 49.5145 3.63054 49.5156 4.24022C49.5163 4.62991 49.5552 5.41551 49.602 5.98594C49.7311 7.55681 49.7583 8.73664 49.685 9.57942C49.6046 10.5041 49.5863 10.583 49.4529 10.583C49.361 10.583 49.3478 10.5389 49.3478 10.231C49.3478 9.74267 49.2073 8.61784 49.0397 7.7653C48.4462 4.74585 47.0541 2.19597 45.2672 0.855409C44.3832 0.192136 43.3491 -0.142051 42.7974 0.0572507ZM18.1943 0.182101C16.5541 0.638167 14.8779 2.45217 13.8398 4.89452C13.2095 6.3772 12.7864 8.1805 12.6582 9.93048C12.6291 10.327 12.5925 10.6644 12.5768 10.6802C12.5612 10.6961 12.5133 10.6955 12.4706 10.6789C12.4149 10.6573 12.3728 10.4437 12.3225 9.92914C12.2275 8.95623 12.2342 7.84082 12.3423 6.64311C12.4772 5.14804 12.5131 3.74878 12.421 3.57527C12.1246 3.01689 10.8557 4.01457 10.2106 5.3132C9.78156 6.177 9.59399 7.02422 9.59621 8.08828C9.60004 9.94063 9.94221 12.1428 10.4026 13.2781C10.4269 13.3381 10.394 13.3866 10.2994 13.4301C10.1642 13.4923 10.1521 13.4791 9.85323 12.9414C9.12952 11.6391 8.93834 11.0845 8.7118 9.62999C8.51029 8.33624 8.42996 8.05655 8.20514 7.86543C8.06686 7.74792 7.99714 7.72572 7.85908 7.75516C7.61949 7.80623 7.393 7.95535 7.12399 8.23903C6.58453 8.80795 6.37214 9.25661 6.26789 10.0477C6.08725 11.4186 6.72902 13.6981 7.79002 15.4542L8.10805 15.9806L7.90776 15.9478C7.63531 15.9031 7.09751 15.5893 6.64603 15.2115C6.02092 14.6884 5.44559 13.9295 4.77351 12.7414C4.40697 12.0935 4.24282 11.8725 4.1283 11.8725C4.00845 11.8725 3.82687 12.2423 3.73988 12.6634C3.66205 13.0404 3.66433 13.3198 3.74971 13.8767C3.77491 14.0409 3.76403 14.0589 3.63996 14.0589C3.23322 14.0589 3.16128 14.1718 2.49686 15.8529C1.15853 19.2389 0.323627 22.9106 0.0555054 26.5888C-0.0182698 27.6004 -0.0185475 30.2464 0.0549501 31.2168C0.187845 32.9708 0.430765 34.4883 0.839943 36.1194C2.06315 40.9961 4.89047 46.1554 8.68948 50.4433C9.87516 51.7816 10.4338 52.2507 11.2112 52.5611C11.6725 52.7452 11.9613 52.795 12.5763 52.7966C13.2082 52.7981 13.6275 52.7071 14.5419 52.3699C15.2159 52.1213 17.4489 51.003 17.4374 50.9198C17.4304 50.8694 9.53814 47.5755 9.50373 47.6087C9.49579 47.6163 9.43883 47.9847 9.3771 48.4273C9.31537 48.87 9.25642 49.2406 9.2461 49.251C9.20513 49.2924 8.17777 48.1431 7.7827 47.614C6.94191 46.4879 6.85859 45.9029 7.47832 45.4766C7.61705 45.3812 7.97332 45.3143 9.38837 45.1179C10.3452 44.9852 11.1377 44.8683 11.1497 44.8582C11.1616 44.8481 11.1054 44.6862 11.0248 44.4984C10.9441 44.3106 10.8781 44.127 10.8781 44.0905C10.8782 44.0459 12.2743 43.8006 15.1385 43.3418C17.4817 42.9666 19.4053 42.6661 19.4132 42.6741C19.4211 42.6821 19.0871 42.9881 18.671 43.3541C18.2548 43.7201 17.9362 44.0262 17.9629 44.0345C18.0452 44.0599 23.921 44.8371 24.0306 44.8371C24.1759 44.8371 24.2105 44.7007 24.1384 44.4116C24.0921 44.2258 24.0069 44.0993 23.804 43.9151C23.5215 43.6585 23.3947 43.6007 22.5709 43.3521C21.3856 42.9945 19.8606 42.2076 18.6776 41.3431C15.5325 39.0449 13.0857 35.4964 11.6548 31.1579C10.8571 28.7395 10.527 26.6708 10.5231 24.066C10.5198 21.7748 10.7367 20.0604 11.332 17.6749C12.3568 13.5677 15.0305 7.82714 18.6882 1.88084C19.5023 0.557326 19.5736 0.347036 19.2632 0.18496C19.0656 0.0817499 18.5599 0.0804042 18.1943 0.182101ZM36.2748 10.8717C35.7029 10.9357 35.0917 11.0909 34.5529 11.3087C33.1857 11.8615 31.8332 13.0058 30.9561 14.3514L30.5645 14.9524L30.3943 14.6453C29.7912 13.5577 28.5721 12.4232 27.3374 11.8009C26.3089 11.2825 25.4252 11.0701 24.312 11.0735C22.8572 11.0781 21.4637 11.4798 20.2874 12.2336C20.1347 12.3314 19.9816 12.4285 19.9472 12.4494C19.9039 12.4756 19.8643 12.3185 19.8193 11.9417C19.7835 11.6415 19.7402 11.314 19.7232 11.2137L19.6921 11.0315H18.3383H16.9844V20.5279V30.0242L17.3591 30.0164C17.9178 30.0048 17.926 30.012 17.8377 30.4381C17.7326 30.9442 17.7445 31.7253 17.8729 32.7724C17.9902 33.7276 18.0876 34.0683 18.4572 34.8141C18.8138 35.5337 19.2658 36.1557 19.8974 36.7958C20.9897 37.903 22.0567 38.4941 23.5477 38.8183C24.1991 38.9599 25.6618 38.9595 26.3104 38.8176C27.3265 38.5953 28.1845 38.2513 28.9119 37.7746C29.1063 37.6473 29.2811 37.5591 29.3005 37.5787C29.3199 37.5983 29.3439 38.5582 29.3539 39.712L29.3719 41.8097L29.9923 41.8095C30.3334 41.8094 30.9642 41.7931 31.3939 41.7732L32.1753 41.7371L32.1498 39.8099C32.1266 38.056 32.1327 37.8734 32.2182 37.7779C32.3094 37.6762 32.3204 37.6786 32.5912 37.8627C33.1595 38.2489 33.9672 38.5761 34.8151 38.7636C35.1718 38.8425 35.5196 38.8655 36.3581 38.8659C37.2908 38.8664 37.5205 38.8483 38.0189 38.7357C39.4582 38.4103 40.5276 37.8259 41.5219 36.8215C43.4 34.9243 44.0623 32.3203 43.326 29.7283C43.1301 29.0384 42.5476 27.8677 42.1106 27.2854C41.6134 26.6228 40.8478 25.904 40.1362 25.4317L39.5379 25.0346L40.1268 24.7366C40.4507 24.5726 40.9353 24.2947 41.2036 24.1189C41.472 23.9432 41.7088 23.8168 41.7299 23.8381C41.751 23.8594 41.7842 24.2546 41.8037 24.7163C41.8233 25.178 41.8515 25.5681 41.8665 25.5833C41.8815 25.5984 42.4406 25.5912 43.1089 25.5672L44.324 25.5236L44.3381 18.2765L44.3522 11.0294L43.1169 11.0445L41.8815 11.0596L41.8054 11.7043C41.7636 12.0589 41.7211 12.3583 41.7109 12.3697C41.7007 12.3811 41.5338 12.2892 41.34 12.1656C40.1467 11.4045 38.978 10.985 37.7181 10.8654C37.0341 10.8005 36.9062 10.801 36.2748 10.8717ZM37.8291 13.8373C38.7704 13.974 39.7394 14.5335 40.5318 15.398C40.7291 15.6132 40.9698 15.9394 41.0666 16.1229C41.6625 17.2519 41.7193 18.8915 41.2038 20.0823C40.8298 20.9462 40.0045 21.8001 39.0952 22.2638C37.3315 23.1633 35.0458 22.6437 33.7522 21.0491C33.1437 20.299 32.87 19.5183 32.8205 18.3909C32.7749 17.3536 32.9354 16.6801 33.4049 15.9378C34.3503 14.4432 36.1426 13.5922 37.8291 13.8373ZM25.1468 13.9192C26.0584 14.1129 26.7608 14.5039 27.4533 15.2032C28.4283 16.1879 28.8028 17.1713 28.7357 18.5704C28.6787 19.759 28.3571 20.494 27.4958 21.4045C26.7859 22.1549 26.1078 22.5433 25.206 22.7161C23.9014 22.966 22.6819 22.6365 21.5509 21.7285C20.8299 21.1497 20.3501 20.4313 20.1167 19.581C19.9775 19.0741 19.9483 17.9334 20.0602 17.3758C20.2289 16.5346 20.6325 15.8154 21.2941 15.1767C22.4263 14.0839 23.8045 13.634 25.1468 13.9192ZM31.3517 22.5128L32.0354 23.3933L30.8301 23.4084C30.1672 23.4167 29.6134 23.4119 29.5993 23.3977C29.5711 23.3693 30.5958 21.6314 30.6404 21.632C30.6556 21.6322 30.9758 22.0285 31.3517 22.5128ZM29.3081 24.7118V25.778L28.4766 25.3425C28.0194 25.1029 27.6457 24.8943 27.6464 24.8789C27.6479 24.8419 29.2126 23.6543 29.2664 23.6494C29.2894 23.6473 29.3081 24.1253 29.3081 24.7118ZM33.4343 24.4251C33.667 24.5549 33.8711 24.6834 33.8877 24.7107C33.9177 24.7596 33.5832 24.9689 32.7359 25.4317L32.3057 25.6667V24.6584V23.65L32.6584 23.9196C32.8524 24.0679 33.2016 24.2954 33.4343 24.4251ZM20.7548 24.8281L21.5393 25.2819L20.732 25.8372C20.2881 26.1427 19.9127 26.3926 19.8979 26.3926C19.8832 26.3926 19.8711 25.9385 19.8711 25.3835C19.8711 24.8274 19.8934 24.3744 19.9207 24.3744C19.948 24.3744 20.3234 24.5785 20.7548 24.8281ZM37.0909 27.3496C38.5375 27.6449 39.7146 28.5128 40.3464 29.7501C40.7116 30.4653 40.7693 30.7329 40.7642 31.6905C40.7603 32.4354 40.7427 32.5888 40.6097 33.0339C40.3897 33.7702 40.1145 34.2581 39.6604 34.7165C38.9816 35.402 38.2177 35.8228 37.2667 36.0351C36.3418 36.2416 35.5639 36.1344 34.601 35.6676C33.596 35.1806 32.6689 34.2393 32.3401 33.3723C32.0445 32.5927 31.9706 31.5143 32.1577 30.7094C32.5511 29.0174 33.9613 27.7183 35.8307 27.3259C36.0602 27.2778 36.8075 27.2918 37.0909 27.3496ZM26.3019 27.5568C26.9943 27.8538 27.4773 28.18 27.9758 28.6874C28.7967 29.5229 29.1364 30.2992 29.1836 31.4467C29.2598 33.3049 28.506 34.704 26.9712 35.5532C25.8626 36.1666 24.4028 36.3046 23.3654 35.894C22.306 35.4747 21.3252 34.5948 20.8669 33.6527C20.5414 32.9833 20.453 32.588 20.4595 31.8306C20.4782 29.6462 21.852 27.9036 23.9296 27.4289C24.175 27.3728 24.5323 27.3532 25.0892 27.3649C25.8471 27.3809 25.9179 27.3921 26.3019 27.5568ZM34.1931 45.1304L30.6681 45.4674L27.5039 45.1788C25.7636 45.02 24.296 44.8908 24.2426 44.8916C24.1621 44.8928 24.1455 44.9457 24.1455 45.1995C24.1455 46.0687 23.4912 46.981 22.1709 47.9527C21.4927 48.4518 19.9559 49.4449 18.5767 50.2751C18.0389 50.5989 17.598 50.8789 17.597 50.8975C17.5959 50.916 18.582 51.3947 19.7882 51.9614C20.9944 52.5281 21.9749 53.0093 21.967 53.0308C21.9592 53.0524 21.126 53.6732 20.1155 54.4105C17.831 56.0773 18.0167 55.934 17.8785 56.1371C17.7316 56.3528 17.7308 56.5304 17.8756 56.7703C18.165 57.2496 18.9113 57.6553 20.5648 58.2321C22.9147 59.0519 25.1105 59.5643 27.5876 59.8708C28.5118 59.9851 28.8632 59.998 31.1122 59.9999C33.6751 60.002 34.0849 59.9791 35.7197 59.7435C39.063 59.2614 43.3436 57.9136 44.2697 57.0515C44.6961 56.6547 44.7159 56.3157 44.3342 55.9519C44.237 55.8593 43.3081 55.1335 42.2701 54.3389C41.232 53.5443 40.3727 52.8855 40.3604 52.875C40.3482 52.8644 41.2537 52.4027 42.3727 51.849C43.4917 51.2953 44.4073 50.8302 44.4073 50.8155C44.4073 50.8009 43.814 50.4293 43.0889 49.9898C41.2676 48.8859 39.698 47.8687 39.1542 47.4399C38.0106 46.5381 37.5959 45.808 37.7633 44.9912C37.787 44.8756 37.7866 44.7838 37.7622 44.7872C37.738 44.7907 36.1319 44.9452 34.1931 45.1304Z" fill="#1B1D28"/>
</svg>
