<svg width="18" height="16" viewBox="0 0 18 16" fill="none" xmlns="http://www.w3.org/2000/svg">
<path fill-rule="evenodd" clip-rule="evenodd" d="M17.979 2.36296C17.9532 2.33225 17.9106 2.32183 17.8743 2.33858C17.3361 2.57957 16.77 2.75282 16.1869 2.85518C16.8059 2.3851 17.2672 1.73415 17.5037 0.98773C17.5151 0.952 17.5033 0.912921 17.4744 0.889659C17.4453 0.866397 17.4049 0.86342 17.373 0.882587C16.6758 1.29999 15.9206 1.59421 15.1276 1.75741C14.4248 1.02123 13.4435 0.600098 12.4278 0.600098C10.3623 0.600098 8.68211 2.29615 8.68211 4.38096C8.68211 4.63311 8.70626 4.88285 8.75419 5.12533C5.89336 4.94705 3.21836 3.56066 1.3995 1.30874C1.38088 1.28567 1.35268 1.27282 1.32318 1.2758C1.29387 1.27804 1.26769 1.29478 1.25294 1.32028C0.921099 1.89493 0.745777 2.5524 0.745777 3.22122C0.745777 4.3804 1.2675 5.4642 2.15591 6.17936C1.69853 6.12391 1.25183 5.97857 0.849016 5.75283C0.821916 5.73739 0.788179 5.73758 0.761078 5.75339C0.733978 5.76902 0.716833 5.79806 0.716095 5.82969L0.715727 5.87808C0.715727 7.54287 1.8025 9.00463 3.3487 9.48996C2.94145 9.55621 2.51891 9.55174 2.10356 9.47172C2.07295 9.46595 2.04088 9.47656 2.01986 9.50038C1.99903 9.5242 1.99202 9.55751 2.00161 9.58766C2.46526 11.0485 3.75354 12.0729 5.25309 12.2006C4.00224 13.1257 2.5237 13.613 0.961473 13.613C0.673694 13.613 0.383886 13.5957 0.0999786 13.5621C0.0594204 13.5574 0.0192308 13.5818 0.00521981 13.621C-0.00879122 13.6607 0.00614159 13.705 0.0411692 13.7275C1.73171 14.8219 3.68643 15.4001 5.69425 15.4001C12.2619 15.4001 16.1865 10.0149 16.1865 4.80878C16.1865 4.66382 16.1837 4.51959 16.178 4.37574C16.8865 3.85264 17.4947 3.21229 17.9851 2.47108C18.007 2.43796 18.0046 2.39385 17.979 2.36296Z" fill="#595B62"/>
</svg>
