<svg width="14" height="16" viewBox="0 0 14 16" fill="none" xmlns="http://www.w3.org/2000/svg">
<path fill-rule="evenodd" clip-rule="evenodd" d="M7 0C7.41421 -5.96046e-08 7.75 0.335786 7.75 0.75L7.75 9.44038L9.21967 7.97071C9.51256 7.67782 9.98744 7.67782 10.2803 7.97071C10.5732 8.26361 10.5732 8.73848 10.2803 9.03137L7.53033 11.7814C7.23744 12.0743 6.76256 12.0743 6.46967 11.7814L3.71967 9.03137C3.42678 8.73848 3.42678 8.26361 3.71967 7.97071C4.01256 7.67782 4.48744 7.67782 4.78033 7.97071L6.25 9.44038L6.25 0.75C6.25 0.335787 6.58579 5.96047e-08 7 0ZM10 4.75043C10 4.33621 10.3358 4.00043 10.75 4.00043H11.25C12.7688 4.00043 14 5.23164 14 6.75043L14 13.2504C14 14.7692 12.7688 16.0004 11.25 16.0004H2.75C1.23122 16.0004 7.15256e-07 14.7692 5.96046e-07 13.2504L0 6.75043C-1.19209e-07 5.23164 1.23122 4.00043 2.75 4.00043L3.25 4.00043C3.66421 4.00043 4 4.33621 4 4.75043C4 5.16464 3.66421 5.50043 3.25 5.50043L2.75 5.50043C2.05964 5.50043 1.5 6.06007 1.5 6.75043L1.5 13.2504C1.5 13.9408 2.05964 14.5004 2.75 14.5004L11.25 14.5004C11.9404 14.5004 12.5 13.9408 12.5 13.2504L12.5 6.75043C12.5 6.06007 11.9404 5.50043 11.25 5.50043H10.75C10.3358 5.50043 10 5.16464 10 4.75043Z" fill="#BCBFC2"/>
</svg>
