<svg width="18" height="18" viewBox="0 0 18 18" fill="none" xmlns="http://www.w3.org/2000/svg">
<path fill-rule="evenodd" clip-rule="evenodd" d="M4.83317 0.666992C4.37293 0.666992 3.99984 1.04009 3.99984 1.50033V2.33366H3.1665C1.78579 2.33366 0.666504 3.45295 0.666504 4.83366V14.8337C0.666504 16.2144 1.78579 17.3337 3.1665 17.3337H14.8332C16.2139 17.3337 17.3332 16.2144 17.3332 14.8337V4.83366C17.3332 3.45295 16.2139 2.33366 14.8332 2.33366H13.9998V1.50033C13.9998 1.04009 13.6267 0.666992 13.1665 0.666992C12.7063 0.666992 12.3332 1.04009 12.3332 1.50033V2.33366H5.6665V1.50033C5.6665 1.04009 5.29341 0.666992 4.83317 0.666992ZM6.49984 9.83366C6.49984 9.37342 6.87293 9.00033 7.33317 9.00033H13.1665C13.6267 9.00033 13.9998 9.37342 13.9998 9.83366C13.9998 10.2939 13.6267 10.667 13.1665 10.667H7.33317C6.87293 10.667 6.49984 10.2939 6.49984 9.83366ZM3.99984 13.167C3.99984 12.7068 4.37293 12.3337 4.83317 12.3337H9.83317C10.2934 12.3337 10.6665 12.7068 10.6665 13.167C10.6665 13.6272 10.2934 14.0003 9.83317 14.0003H4.83317C4.37293 14.0003 3.99984 13.6272 3.99984 13.167Z" fill="white"/>
</svg>
