<svg width="20" height="20" viewBox="0 0 20 20" fill="none" xmlns="http://www.w3.org/2000/svg">
<path d="M19.3895 17.5804L17.4846 19.4853C17.4846 19.4853 12.5349 21.6066 5.4638 14.5356C-1.60727 7.46451 0.514049 2.51476 0.514049 2.51476L2.41898 0.609827C3.2796 -0.250792 4.70294 -0.149636 5.4332 0.824042L7.25147 3.24841C7.84865 4.04465 7.76947 5.15884 7.06568 5.86262L5.4638 7.46451C5.4638 7.46451 5.4638 8.87872 8.29222 11.7071C11.1207 14.5356 12.5349 14.5356 12.5349 14.5356L14.1368 12.9337C14.8405 12.2299 15.9547 12.1507 16.751 12.7479L19.1753 14.5662C20.149 15.2964 20.2502 16.7198 19.3895 17.5804Z" fill="#BCBFC2"/>
</svg>
