<svg width="24" height="25" viewBox="0 0 24 25" fill="none" xmlns="http://www.w3.org/2000/svg">
<path d="M13 1.5C13.5523 1.5 14 1.94772 14 2.5V5.5C14 7.15685 15.3431 8.5 17 8.5H20C20.5523 8.5 21 8.94772 21 9.5V20.5C21 22.1569 19.6569 23.5 18 23.5H6C4.34315 23.5 3 22.1569 3 20.5V4.5C3 2.84315 4.34315 1.5 6 1.5H13Z" fill="#83D8A4"/>
<path d="M16.9774 1.67757C16.4681 1.46399 16 1.94777 16 2.50005V5.50005C16 6.05234 16.4477 6.50005 17 6.50005H20C20.5523 6.50005 21.0361 6.03194 20.8225 5.52262C20.73 5.30212 20.5972 5.09721 20.4142 4.91427L17.5858 2.08584C17.4028 1.90289 17.1979 1.77003 16.9774 1.67757Z" fill="#83D8A4"/>
</svg>
