<svg width="20" height="20" viewBox="0 0 20 20" fill="none" xmlns="http://www.w3.org/2000/svg">
<g clip-path="url(#clip0)">
<path d="M14.9767 2.54511L4.67167 6.66678H1.875C0.841667 6.66678 0 7.50844 0 8.54178V10.8334C0 11.8151 0.770833 12.5001 1.875 12.5001H2.58333L3.34 17.7968C3.38417 18.1051 3.6475 18.3334 3.95833 18.3334H6.45833C6.63667 18.3334 6.80583 18.2576 6.925 18.1251C7.04333 17.9926 7.1 17.8159 7.08 17.6384L6.58833 13.2668L14.9758 16.6218C15.0517 16.6518 15.13 16.6668 15.2083 16.6668C15.3308 16.6668 15.4542 16.6301 15.5592 16.5593C15.7308 16.4426 15.8333 16.2493 15.8333 16.0418V3.12511C15.8333 2.91761 15.7308 2.72428 15.5592 2.60761C15.3867 2.49094 15.1683 2.46761 14.9767 2.54511Z" fill="white"/>
<path d="M17.6827 7.77998L19.766 6.11331C20.0351 5.89747 20.0793 5.50414 19.8635 5.23414C19.6468 4.96581 19.2543 4.92247 18.9843 5.13664L16.901 6.80331C16.6318 7.01914 16.5877 7.41248 16.8035 7.68248C16.9268 7.83581 17.1085 7.91665 17.2918 7.91665C17.4293 7.91665 17.5668 7.87165 17.6827 7.77998Z" fill="white"/>
<path d="M17.6827 12.22C17.4143 12.0058 17.021 12.0492 16.8035 12.3175C16.5877 12.5867 16.6318 12.9809 16.901 13.1967L18.9843 14.8634C19.1001 14.955 19.2376 15 19.3751 15C19.5585 15 19.7401 14.9192 19.8635 14.7659C20.0793 14.4967 20.0351 14.1025 19.766 13.8867L17.6827 12.22Z" fill="white"/>
<path d="M19.3749 9.375H17.2915C16.9465 9.375 16.6665 9.655 16.6665 10C16.6665 10.345 16.9465 10.625 17.2915 10.625H19.3749C19.7199 10.625 19.9999 10.345 19.9999 10C19.9999 9.655 19.7199 9.375 19.3749 9.375Z" fill="white"/>
</g>
<defs>
<clipPath id="clip0">
<rect width="20" height="20" fill="white"/>
</clipPath>
</defs>
</svg>
