<svg width="18" height="16" viewBox="0 0 18 16" fill="none" xmlns="http://www.w3.org/2000/svg">
<path fill-rule="evenodd" clip-rule="evenodd" d="M9 0.799988C6.102 0.799988 2.3406 1.52934 2.3406 1.52934L2.33113 1.5402C1.01123 1.75223 0 2.89147 0 4.27695V11.7217C0.00266071 13.0899 0.993669 14.2523 2.33789 14.4652L2.3406 14.4693C2.3406 14.4693 6.102 15.2 9 15.2C11.898 15.2 15.6594 14.4693 15.6594 14.4693C17.0065 14.2555 17.9986 13.0914 18 11.723V4.27695C17.998 2.90955 17.0068 1.7464 15.6621 1.53341C15.6594 1.52934 11.898 0.799988 9 0.799988ZM7.2 4.84999L12.6 7.99999L7.2 11.15V4.84999Z" fill="white"/>
</svg>
