<svg width="18" height="18" viewBox="0 0 18 18" fill="none" xmlns="http://www.w3.org/2000/svg">
<path fill-rule="evenodd" clip-rule="evenodd" d="M17.4352 16.3951L13.1459 11.9395C14.2487 10.6301 14.853 8.98262 14.853 7.26749C14.853 3.26026 11.5887 0 7.57641 0C3.56415 0 0.299805 3.26026 0.299805 7.26749C0.299805 11.2747 3.56415 14.535 7.57641 14.535C9.08266 14.535 10.518 14.0812 11.7453 13.2199L16.0672 17.7093C16.2479 17.8967 16.4909 18 16.7512 18C16.9977 18 17.2315 17.9062 17.409 17.7355C17.7861 17.3731 17.7981 16.7721 17.4352 16.3951ZM7.5764 1.89587C10.5421 1.89587 12.9548 4.30552 12.9548 7.26749C12.9548 10.2295 10.5421 12.6391 7.5764 12.6391C4.61072 12.6391 2.19805 10.2295 2.19805 7.26749C2.19805 4.30552 4.61072 1.89587 7.5764 1.89587Z" fill="#595B62"/>
</svg>
