<svg width="21" height="20" viewBox="0 0 21 20" fill="none" xmlns="http://www.w3.org/2000/svg">
<path fill-rule="evenodd" clip-rule="evenodd" d="M10.25 19C5.27944 19 1.25 14.9706 1.25 10C1.25 5.02944 5.27944 1 10.25 1C15.2206 1 19.25 5.02944 19.25 10C19.25 14.9706 15.2206 19 10.25 19ZM11.25 10V6C11.25 5.44772 10.8023 5 10.25 5C9.69771 5 9.25 5.44772 9.25 6V11C9.25 11.5523 9.69771 12 10.25 12H13.25C13.8023 12 14.25 11.5523 14.25 11C14.25 10.4477 13.8023 10 13.25 10H11.25Z" fill="#BCBFC2"/>
</svg>
